<mxfile host="app.diagrams.net" modified="2024-01-21T13:51:07.885Z" agent="Mozilla/5.0 (X11; Linux x86_64) AppleWebKit/537.36 (KHTML, like Gecko) Chrome/119.0.0.0 Safari/537.36" version="22.1.18" etag="qkJg86II5PzOmhWkXlBX" type="github">
  <diagram name="第 1 页" id="ww5pKAjv0X_jA_mPPNJ_">
    <mxGraphModel>
      <root>
        <mxCell id="0" />
        <mxCell id="1" parent="0" />
      </root>
    </mxGraphModel>
  </diagram>
</mxfile>
